<svg xmlns="http://www.w3.org/2000/svg" width="1024" height="1253" viewBox="0 0 1024 1253">
    <g fill="none" fill-rule="evenodd" transform="matrix(-1 0 0 1 4423 -309)">
        <path fill="#DB3EB1" d="M2894.376 1107.608c228.282-53.209 331.666-878.167 666.869 42.795 117.708 323.4-901.472 11.887-666.869-42.795z" style="mix-blend-mode:multiply"/>
        <path fill="#FFC450" d="M3943.387 975.974c0-300.222 956.24-252.884 443.262 265.645-319.19 322.644-443.262 77.616-443.262-265.645z" style="mix-blend-mode:multiply"/>
        <path fill="#00B5E2" d="M3574.317 363.248c173.564 0 362.65 393.808 649.783 188.14 253.312-181.444 338.87 295.366.008 274.968-133.83-8.056-268.16 371.174-396.236 419.237-212.254 79.653-466.177-352.88-297.77-419.237 540.003-212.778-327.535-463.108 44.215-463.108z" style="mix-blend-mode:multiply"/>
        <circle cx="3539.285" cy="600.651" r="196.589" fill="#F93822" fill-opacity=".75" style="mix-blend-mode:multiply"/>
        <path stroke="#EBEBEC" stroke-linecap="square" d="M2916.58 1214.772c241.974-64.681 351.559-1067.51 706.866 52.022 124.768 393.13-955.539 14.45-706.865-52.022zM4028.507 1054.756c0-364.953 1013.592-307.409 469.847 322.922-338.334 392.21-469.847 94.351-469.847-322.922z"/>
        <path stroke="#EBEBEC" stroke-linecap="square" d="M3637.302 309.918c183.974 0 384.4 478.72 688.754 228.705 268.504-220.565 359.194 359.051.01 334.256-141.858-9.793-284.244 451.204-420.002 509.63-224.984 96.827-494.136-428.965-315.63-509.63 572.391-258.655-347.179-562.96 46.868-562.96z"/>
        <ellipse cx="3599.826" cy="597.93" stroke="#EBEBEC" stroke-linecap="square" rx="208.153" ry="238.764" style="mix-blend-mode:multiply"/>
        <path stroke="#EBEBEC" stroke-linecap="square" d="M3721.368 1214.772c-241.973-64.681-351.558-1067.51-706.865 52.022-124.768 393.13 955.539 14.45 706.865-52.022zM4783.858 1054.756c0-364.953-1013.592-307.409-469.847 322.922 338.334 392.21 469.847 94.351 469.847-322.922z"/>
        <path stroke="#EBEBEC" stroke-linecap="square" d="M3351.817 740.447c-190.16-150.78-1154.247-122.312-327.175 404.617 453.53 288.945 662.43-138.79 327.175-404.617zM4582.842 309.918c-183.973 0-384.4 478.72-688.754 228.705-268.504-220.565-359.194 359.051-.009 334.256 141.858-9.793 284.244 451.204 420.001 509.63 224.984 96.827 494.137-428.965 315.63-509.63-572.391-258.655 347.18-562.96-46.868-562.96z"/>
        <ellipse cx="3724.99" cy="597.93" stroke="#EBEBEC" stroke-linecap="square" rx="208.153" ry="238.764" style="mix-blend-mode:multiply" transform="matrix(-1 0 0 1 7449.98 0)"/>
    </g>
</svg>
