<svg xmlns="http://www.w3.org/2000/svg" xmlns:xlink="http://www.w3.org/1999/xlink" width="24" height="24" viewBox="0 0 24 24">
    <defs>
        <path id="a" d="M16.807 10.35l-.204.363a.306.306 0 0 1-.377.137 2.747 2.747 0 0 1-.801-.472.32.32 0 0 1-.07-.4l.204-.362a2.201 2.201 0 0 1-.396-.696h-.412a.31.31 0 0 1-.305-.261 2.91 2.91 0 0 1 0-.942.312.312 0 0 1 .305-.264h.412c.09-.257.224-.493.396-.696l-.204-.363a.316.316 0 0 1 .07-.399c.237-.2.509-.36.8-.472a.306.306 0 0 1 .378.137l.204.363c.263-.048.53-.048.792 0l.204-.363a.306.306 0 0 1 .377-.137c.295.112.564.272.802.472a.32.32 0 0 1 .07.399l-.205.363c.172.203.307.44.397.696h.412c.15 0 .28.109.304.261.05.305.052.625 0 .942a.312.312 0 0 1-.304.264h-.412c-.09.257-.225.493-.397.696l.204.363a.316.316 0 0 1-.07.399c-.237.2-.509.36-.8.472a.306.306 0 0 1-.378-.137l-.204-.363c-.26.048-.53.048-.792 0zm-.262-1.493c.961.751 2.057-.363 1.318-1.341-.96-.754-2.056.363-1.318 1.34zm-2.878 3.907l.842.427c.252.147.362.46.262.739-.222.614-.66 1.178-1.064 1.67a.59.59 0 0 1-.756.135l-.726-.427c-.4.348-.864.625-1.37.805v.853a.605.605 0 0 1-.492.6 5.52 5.52 0 0 1-1.895 0 .607.607 0 0 1-.5-.6v-.853a4.318 4.318 0 0 1-1.37-.805l-.726.424a.59.59 0 0 1-.756-.134c-.405-.493-.831-1.056-1.054-1.668-.1-.277.01-.59.262-.74l.832-.426a4.473 4.473 0 0 1 0-1.61l-.832-.429a.61.61 0 0 1-.262-.736c.223-.614.65-1.178 1.054-1.67a.59.59 0 0 1 .756-.135l.726.426c.4-.348.864-.624 1.37-.805V6.95c0-.292.205-.546.49-.597a5.598 5.598 0 0 1 1.897-.002c.287.05.5.302.5.599v.853c.506.183.97.457 1.37.805l.726-.427a.59.59 0 0 1 .756.135c.405.492.829 1.056 1.051 1.67.1.277.003.59-.25.74l-.84.426c.097.533.097 1.08 0 1.612zm-2.935.536c1.478-1.955-.716-4.187-2.638-2.684-1.478 1.955.716 4.187 2.638 2.684zm6.075 4.639l-.204.363a.306.306 0 0 1-.377.137 2.747 2.747 0 0 1-.801-.472.32.32 0 0 1-.07-.399l.204-.363a2.201 2.201 0 0 1-.396-.696h-.412a.31.31 0 0 1-.305-.261 2.91 2.91 0 0 1 0-.942.312.312 0 0 1 .305-.264h.412c.09-.257.224-.493.396-.696l-.204-.363a.316.316 0 0 1 .07-.399c.237-.2.509-.36.8-.472a.306.306 0 0 1 .378.137l.204.363c.263-.048.53-.048.792 0l.204-.363a.306.306 0 0 1 .377-.137c.295.112.564.272.802.472a.32.32 0 0 1 .07.399l-.205.363c.172.203.307.44.397.696h.412c.15 0 .28.109.304.261.05.305.052.625 0 .942a.312.312 0 0 1-.304.264h-.412c-.09.257-.225.493-.397.696l.204.363a.316.316 0 0 1-.07.399c-.237.2-.509.36-.8.472a.306.306 0 0 1-.378-.137l-.204-.363c-.26.048-.53.048-.792 0zm-.262-1.496c.961.752 2.057-.363 1.318-1.34-.96-.752-2.056.363-1.318 1.34z"/>
    </defs>
    <use fill="#333" fill-rule="evenodd" xlink:href="#a"/>
</svg>
