<svg xmlns="http://www.w3.org/2000/svg" xmlns:xlink="http://www.w3.org/1999/xlink" width="24" height="24" viewBox="0 0 24 24">
    <defs>
        <path id="a" d="M16.71 16.93a.375.375 0 0 0-.451-.293c-.334.077-.857.17-1.42.17-1.774 0-3.185-1.088-3.795-2.67h3.552a.375.375 0 0 0 .366-.294l.2-.886a.375.375 0 0 0-.366-.457H10.6a6.746 6.746 0 0 1 .004-1.32h4.58a.375.375 0 0 0 .367-.295l.204-.93a.375.375 0 0 0-.367-.455h-4.32c.644-1.406 1.958-2.345 3.675-2.345.453 0 .892.07 1.183.13a.375.375 0 0 0 .437-.27l.375-1.386a.375.375 0 0 0-.291-.466A9.1 9.1 0 0 0 14.8 5C11.764 5 9.313 6.883 8.41 9.5H7.375A.375.375 0 0 0 7 9.875v.93c0 .207.168.375.375.375h.674a9.277 9.277 0 0 0-.006 1.32h-.668a.375.375 0 0 0-.375.375v.886c0 .207.168.375.375.375h.941C9.098 16.96 11.54 19 14.801 19c.822 0 1.518-.142 1.91-.243a.375.375 0 0 0 .274-.437l-.275-1.39z"/>
    </defs>
    <use fill="#333" fill-rule="evenodd" xlink:href="#a"/>
</svg>
