<svg xmlns="http://www.w3.org/2000/svg" width="120" height="120" viewBox="0 0 120 120">
    <g fill="none" fill-rule="evenodd" stroke="#333">
        <path d="M34.328 99.58c-3.507 6.58-4.503 16.302-2.063 17.645 3.195 1.759 6.408-.897 12.52-12.8 3.173-6.179 3.82-11.402 2.483-15.639-.98-3.107-3.018-5.492-5.115-6.646-.653-.36-1.31.18-2.117 1.876-.667 1.401-.974 2.314-2.452 7.015-.296.941-.52 1.644-.748 2.332-.876 2.644-1.651 4.61-2.508 6.217zM62.258 97.986c-.247 7.441 3.15 16.614 5.94 16.76 3.647.19 5.36-3.594 5.6-16.95.123-6.936-1.601-11.912-4.674-15.14-2.253-2.366-5.14-3.623-7.535-3.748-.744-.038-1.097.73-1.072 2.607.02 1.55.145 2.495.894 7.377.149.968.257 1.695.355 2.409.381 2.76.553 4.865.492 6.685zM23.183 73.798c-5.175 5.338-8.848 14.337-6.915 16.256 2.534 2.517 6.33.837 15.472-8.882 4.748-5.047 6.828-9.852 6.747-14.243-.059-3.217-1.323-6.026-2.988-7.678-.512-.51-1.289-.17-2.53 1.231-1.026 1.159-1.576 1.949-4.295 6.033-.546.82-.958 1.431-1.367 2.026-1.573 2.287-2.86 3.953-4.124 5.257zM85.34 66.06c7.235-1.803 15.15-7.502 14.535-10.147-.807-3.466-4.922-4.041-17.855-.613-6.718 1.781-11.045 4.762-13.319 8.529-1.665 2.76-2.09 5.808-1.56 8.085.162.699 1.002.82 2.803.284 1.488-.442 2.37-.82 6.863-2.856a161.18 161.18 0 0 1 2.23-.995c2.555-1.111 4.535-1.847 6.303-2.288zM37.931 24.329c-11.835 18.1-7.309 31.813 12.664 33.077 9.845.623 17.772-1.895 22.55-6.609 4.325-4.265 5.517-9.89 3.178-14.747-2.612-5.423-9.805-12.428-16.946-15.974-8.813-4.377-16.455-3.38-21.446 4.253z"/>
        <path stroke-linecap="round" d="M46.139 15.766c-.953-2.052-3-3.536-6.139-4.453M48.379 15.566C48.379 12.05 49.667 8 51.572 8M51.019 15.316c.814-1.849 1.658-2.514 3.308-2.514M46.139 15.766c-.953-2.052-3-3.536-6.139-4.453M48.379 15.566C48.379 12.05 49.667 8 51.572 8M51.019 15.316c.814-1.849 1.658-2.514 3.308-2.514"/>
        <path d="M36.931 60.329c-11.835 18.1-7.309 31.813 12.664 33.077 9.845.623 17.772-1.895 22.55-6.609 4.325-4.265 5.517-9.89 3.178-14.747-2.612-5.423-9.805-12.428-16.946-15.974-8.813-4.377-16.455-3.38-21.446 4.253z"/>
    </g>
</svg>
