<svg xmlns="http://www.w3.org/2000/svg" width="120" height="120" viewBox="0 0 120 120">
    <g fill="none" fill-rule="evenodd" stroke="#333">
        <path d="M43.448 7.005c-13.922-4.55-22.043.768-19.384 13.992 2.563 12.751 12.174 18.369 18.362 13.055 3.09-2.652 6.426-8.59 7.5-13.879 1.319-6.496-.65-11.263-6.478-13.168zM80.203 14.121c-12.597-4.116-14.207-2.08-9.94 11.183 2.119 6.59 3.995 10.324 5.772 11.506 1.614 1.073 3.341-.067 5.476-3.886a65.03 65.03 0 0 1 1.57-2.636l.479-.766.474-.757c.382-.61.655-1.051.915-1.481.665-1.1 1.161-1.992 1.556-2.823 2.368-4.98.999-7.954-6.302-10.34zM27.764 71.81c0 3.51 4.31 6.128 9.648 6.322 5.45.198 9.202-2.185 8.688-6.26-.403-3.204-.275-7.673.269-13.906.124-1.425.265-2.893.453-4.763 1.035-10.282 1.208-13.077.772-13.316-2.192-1.199-19.248-1-19.86.7-.418 1.16-.45 6.634-.227 17.157l.06 2.74c.162 7.23.197 9.033.197 11.325zM67.933 88.814c-1.002 3.568-.906 5.324.238 6.208 1.113.86 3.16 1.114 8.023 1.114 10.096 0 11.774-1.15 9.907-7.312-1.413-4.661-1.942-11.99-1.868-22.069.026-3.52.113-6.94.285-11.966.383-11.239.397-14.377.019-14.656-2.174-1.606-14.154-1.35-14.79 1.034-.242.907-.225 2.337.043 12.01.17 6.148.238 10.388.192 14.778-.095 9.104-.711 16.1-2.049 20.859zM26.941 41.142c-1.018.958-2.33 4.76-3.674 10.476-.61 2.59-2.083 9.658-2.18 10.072-.995 4.207-3.523 17.475-3.523 19.11 0 1.143 1.317 2.452 2.77 2.78 1.544.346 2.553-.505 2.553-2.78 0-.201 0-.202-.073-.942-.118-1.188-.118-2.06.08-3.217.163-.951.406-2.044.739-3.373.098-.39.203-.8.324-1.26.087-.331.577-2.176.7-2.654.237-.91.386-1.544.474-2.02.875-4.773 2.006-13.72 2.006-15.518l.002-.79a337.96 337.96 0 0 0-.016-4.848c-.019-1.63-.052-2.977-.103-3.958-.023-.444-.05-.806-.079-1.078z"/>
        <path d="M47.879 40.218c1.268.65 2.419 4.527 3.447 10.962.12.75 1.325 9.273 1.617 10.51.995 4.207 3.523 17.475 3.523 19.11 0 1.143-1.317 2.452-2.771 2.78-1.543.346-2.552-.505-2.552-2.78 0-.097.006-.225.017-.408l.04-.576c.071-1.035.085-1.776.014-2.554a8.77 8.77 0 0 0-.077-.617 37.638 37.638 0 0 0-.576-2.767 86.43 86.43 0 0 0-.497-1.945c-.074-.279-.56-2.078-.686-2.556a29.04 29.04 0 0 1-.479-2.043c-.797-4.35-1.612-18.488-1.38-20.55.148-1.327.188-2.281.225-4.374.02-1.152.04-1.626.1-2.006.01-.073.023-.135.035-.186zM84.797 40.325c2.18 1.94 7.313 17.03 8.566 23.639.172.906-.652 2.437-2.441 4.758-.224.29-.463.594-.749.953-3.135 3.935-3.428 4.345-3.428 5.323 0 1.058-.451 1.428-.987 1.118-.84-.486-1.488-2.123-1.488-4.553 0-.62.386-1.044 2.493-2.929 2.153-1.926 3.036-3.186 2.793-4.836-.249-1.691-.832-3.895-1.744-6.764-.18-.568-.373-1.162-.587-1.807-.224-.677-1.406-4.176-1.673-5-.493-1.523-.736-2.432-.736-2.772 0-.864-.014-1.653-.046-2.993-.052-2.162-.06-2.772-.028-3.479.012-.27.03-.49.055-.658zM69.086 41.673c-2.18 1.94-7.312 17.03-8.565 23.639-.172.906.651 2.437 2.441 4.758.224.29.463.594.749.953 3.135 3.935 3.428 4.345 3.428 5.323 0 1.058.451 1.428.987 1.118.84-.486 1.488-2.123 1.488-4.553 0-.62-.387-1.045-2.493-2.929-2.154-1.926-3.036-3.187-2.793-4.836.248-1.692.832-3.895 1.743-6.764.18-.568.374-1.162.587-1.807.224-.677 1.406-4.177 1.673-5 .494-1.523.737-2.432.737-2.772 0-.864.013-1.653.046-2.993.051-2.162.06-2.772.028-3.479-.012-.27-.031-.49-.056-.658zM43.911 76.898c-.977.4-1.953.688-3.035.928-.175.039-2.01.4-2.327.499-.352.108-.36.116-.34.18.064.227.184.985.43 2.678a887.581 887.581 0 0 1 .342 2.36 697.685 697.685 0 0 0 .468 3.19c.486 3.25.868 5.527 1.164 6.816.229 1 .246 2.788.192 9.65l-.001.16c-.048 6.147.024 9.048.304 9.553.417.752 2.066 1.048 3.467.577 1.516-.509 2.055-1.596 1.188-3.158-.454-.82-.364-2.121.273-7.655l.033-.285c.453-3.956.565-5.908.294-6.832-.454-1.54-.888-4.489-1.383-8.955-.034-.3-.068-.61-.102-.928-.132-1.222-.592-5.689-.688-6.561a54.38 54.38 0 0 0-.279-2.217zM81.572 96.44c-.659.062-1.762.106-2.944.112.128 1.103.126 3.075.066 7.874l-.002.137c-.068 5.404-.007 7.904.274 8.412.424.764 1.539 1.058 2.36.663.891-.428 1.098-1.494.197-3.119-.45-.81-.42-2.176-.068-7.526l.015-.225c.223-3.42.274-5.286.102-6.328zM30.126 75.892c.489.137 1.653.644 2.672 1.233 1.36.787 2.238 1.592 2.178 1.8-.064.223-.212 1.01-.507 2.659-.05.279-.683 3.848-.89 5.001l-.06.333c-.57 3.16-.989 5.346-1.283 6.63-.23 1-.247 2.79-.193 9.65l.002.16c.047 6.148-.024 9.05-.304 9.554-.417.752-2.066 1.048-3.467.577-1.517-.509-2.055-1.596-1.189-3.158.454-.82.364-2.121-.273-7.655l-.032-.285c-.453-3.956-.566-5.908-.294-6.832.455-1.547 1.009-4.48 1.843-9.489l.083-.497.615-3.724c.229-1.383.397-2.377.547-3.223.177-1 .32-1.745.435-2.26.044-.193.083-.352.117-.474zM76.593 96.408c.024-.247.057-.45.098-.63l.487.112.323.381c-.322.138-.322.138-.349.124l-.153.006-.406.007zM36.166 39.924l-1.444 23.572 2.83 3.394 2.543-3.371-2.38-23.595h-1.549zM72.948 40.14c.172 3.223 2.039 5.443 4.276 5.591 2.291.151 4.07-1.937 4.214-5.795l-8.49.204z"/>
    </g>
</svg>
