<svg xmlns="http://www.w3.org/2000/svg" width="120" height="120" viewBox="0 0 120 120">
    <g fill="none" fill-rule="evenodd" stroke="#333">
        <path d="M25.043 85.278C16.638 85.44 6.5 89.784 6.5 92.948c0 4.127 4.383 5.829 19.435 5.307 7.815-.27 13.32-2.493 16.779-6.124 2.537-2.664 3.786-5.971 3.786-8.665 0-.879-.92-1.24-3.058-1.1-1.745.113-2.798.309-8.245 1.433-1.078.223-1.888.386-2.683.537-3.075.588-5.428.902-7.47.942z"/>
        <path d="M32.043 79.278c-8.405.163-18.543 4.506-18.543 7.67 0 4.127 4.383 5.829 19.435 5.307 7.815-.27 13.32-2.493 16.779-6.124 2.537-2.664 3.786-5.971 3.786-8.665 0-.879-.92-1.24-3.058-1.1-1.745.113-2.798.309-8.245 1.433-1.078.223-1.888.386-2.683.537-3.075.588-5.428.902-7.47.942zM64.484 86.2c1.033 8.303 6.336 17.893 9.422 17.569 4.028-.424 5.237-4.938 3.161-19.785-1.077-7.71-3.824-12.932-7.733-15.982-2.868-2.237-6.23-3.133-8.86-2.856-.852.09-1.11 1.037-.751 3.138.293 1.717.593 2.739 2.26 8.016.33 1.044.573 1.83.804 2.6.894 2.986 1.446 5.282 1.697 7.3z"/>
        <path d="M87.733 78.413c7.457 3.786 18.367 4.75 19.825 2.008 1.901-3.579-1.164-7.106-14.625-13.686-6.99-3.418-12.853-4.06-17.566-2.522-3.457 1.128-6.079 3.416-7.32 5.753-.403.757.237 1.5 2.18 2.378 1.585.717 2.6 1.04 7.904 2.608 1.05.31 1.837.547 2.605.787 2.973.927 5.184 1.753 6.997 2.674zM70.626 23.024c-13.118 20.345-8.092 35.788 14.05 37.208 10.906.7 19.69-2.13 24.988-7.43 4.802-4.803 6.128-11.144 3.527-16.62-2.896-6.097-10.863-13.966-18.774-17.95-9.77-4.92-18.253-3.798-23.791 4.792z"/>
        <path stroke-linecap="round" d="M84.139 13.766c-.953-2.052-3-3.536-6.139-4.453M86 13.513C86.814 11.665 87.658 11 89.308 11"/>
        <path d="M40.626 53.024c-13.118 20.345-8.092 35.788 14.05 37.208 10.906.7 19.69-2.13 24.988-7.43 4.802-4.803 6.128-11.144 3.527-16.62-2.896-6.097-10.863-13.966-18.774-17.95-9.77-4.92-18.253-3.798-23.791 4.792z"/>
    </g>
</svg>
