<svg xmlns="http://www.w3.org/2000/svg" width="120" height="120" viewBox="0 0 120 120">
    <g fill="none" fill-rule="evenodd" stroke="#333">
        <path d="M66.448 7.005c-13.922-4.55-22.043.768-19.384 13.992 2.563 12.751 12.174 18.369 18.362 13.055 3.09-2.652 6.426-8.59 7.5-13.879 1.319-6.496-.65-11.263-6.478-13.168zM50.764 71.81c0 3.51 4.31 6.128 9.648 6.322 5.45.198 9.202-2.185 8.688-6.26-.403-3.204-.275-7.673.269-13.906.124-1.425.265-2.893.453-4.763 1.035-10.282 1.208-13.077.772-13.316-2.192-1.199-19.248-1-19.86.7-.418 1.16-.45 6.634-.227 17.157l.06 2.74c.162 7.23.197 9.033.197 11.325zM49.941 41.142c-1.018.958-2.33 4.76-3.674 10.476-.61 2.59-2.083 9.658-2.18 10.072-.995 4.207-3.523 17.475-3.523 19.11 0 1.143 1.317 2.452 2.77 2.78 1.544.346 2.553-.505 2.553-2.78 0-1.092.367-3.489 1.052-7.188.057-.308.116-.627.179-.958.165-.88.884-4.618 1.013-5.32.875-4.773 2.006-13.72 2.006-15.518l.002-.79a337.96 337.96 0 0 0-.016-4.848c-.019-1.63-.052-2.977-.103-3.958-.023-.444-.05-.806-.079-1.078z"/>
        <path d="M70.879 40.218c1.268.65 2.419 4.527 3.447 10.962.12.75 1.325 9.273 1.617 10.51.995 4.207 3.523 17.475 3.523 19.11 0 1.143-1.317 2.452-2.771 2.78-1.543.346-2.552-.505-2.552-2.78 0-1.092-.368-3.489-1.052-7.188l-.179-.958c-.165-.88-.884-4.618-1.013-5.32-.797-4.35-1.612-18.488-1.38-20.55.148-1.327.188-2.281.225-4.374.02-1.152.04-1.626.1-2.006.01-.073.023-.135.035-.186zM66.911 76.898c-.977.4-1.953.688-3.035.928-.175.039-2.01.4-2.327.499-.352.108-.36.116-.34.18.064.227.184.985.43 2.678a887.581 887.581 0 0 1 .342 2.36c.153 1.059.273 1.878.392 2.684l.076.506c.486 3.25.868 5.527 1.164 6.816.229 1 .246 2.788.192 9.65l-.001.16c-.048 6.147.024 9.048.304 9.553.417.752 2.066 1.048 3.467.577 1.516-.509 2.055-1.596 1.188-3.158-.454-.82-.364-2.121.273-7.655l.033-.285c.453-3.956.565-5.908.294-6.832-.454-1.54-.888-4.489-1.383-8.955-.034-.3-.068-.61-.102-.928-.132-1.222-.592-5.689-.688-6.561a54.38 54.38 0 0 0-.279-2.217zM53.126 75.892c.489.137 1.653.644 2.672 1.233 1.36.787 2.238 1.592 2.178 1.8-.064.223-.212 1.01-.507 2.659-.05.279-.683 3.848-.89 5.001l-.06.333c-.57 3.16-.989 5.346-1.283 6.63-.23 1-.247 2.79-.193 9.65l.002.16c.047 6.148-.024 9.05-.304 9.554-.417.752-2.066 1.048-3.467.577-1.517-.509-2.055-1.596-1.189-3.158.454-.82.364-2.121-.273-7.655l-.032-.285c-.453-3.956-.566-5.908-.294-6.832.455-1.547 1.009-4.48 1.843-9.489l.083-.497.615-3.724c.229-1.383.397-2.377.547-3.223.177-1 .32-1.745.435-2.26.044-.193.083-.352.117-.474zM59.166 39.924l-1.444 23.572 2.83 3.394 2.543-3.371-2.38-23.595h-1.549z"/>
    </g>
</svg>
