<svg xmlns="http://www.w3.org/2000/svg" xmlns:xlink="http://www.w3.org/1999/xlink" width="24" height="24" viewBox="0 0 24 24">
    <defs>
        <path id="a" d="M17.5 19h-11A1.5 1.5 0 0 1 5 17.5v-11A1.5 1.5 0 0 1 6.5 5h11A1.5 1.5 0 0 1 19 6.5v11a1.5 1.5 0 0 1-1.5 1.5zm-6.396-3.064l5.75-5.75a.5.5 0 0 0 0-.707l-.708-.708a.5.5 0 0 0-.707 0l-4.689 4.69-2.19-2.19a.5.5 0 0 0-.706 0l-.708.708a.5.5 0 0 0 0 .707l3.25 3.25a.5.5 0 0 0 .708 0z"/>
    </defs>
    <use fill="#333" fill-rule="evenodd" xlink:href="#a"/>
</svg>
