<svg xmlns="http://www.w3.org/2000/svg" xmlns:xlink="http://www.w3.org/1999/xlink" width="24" height="24" viewBox="0 0 24 24">
    <defs>
        <path id="a" d="M12.002 7.96C9.732 7.96 7.9 9.765 7.9 12c0 2.236 1.83 4.04 4.1 4.04 2.27 0 4.102-1.804 4.102-4.04 0-2.236-1.831-4.04-4.101-4.04zm0 6.666c-1.467 0-2.667-1.178-2.667-2.626s1.196-2.626 2.667-2.626c1.47 0 2.666 1.178 2.666 2.626s-1.2 2.626-2.666 2.626zm5.225-6.83a.947.947 0 0 1-.956.942.947.947 0 0 1-.957-.943.95.95 0 0 1 .957-.942.95.95 0 0 1 .956.942zm2.717.956c-.06-1.263-.354-2.38-1.292-3.302-.936-.92-2.07-1.209-3.352-1.272-1.32-.074-5.28-.074-6.6 0-1.278.06-2.413.348-3.352 1.269-.938.921-1.228 2.039-1.292 3.301-.075 1.3-.075 5.2 0 6.5.06 1.263.354 2.38 1.292 3.302.94.92 2.07 1.209 3.352 1.272 1.32.074 5.28.074 6.6 0 1.281-.06 2.416-.348 3.352-1.272.935-.921 1.228-2.04 1.292-3.302.075-1.3.075-5.196 0-6.496zm-1.706 7.892a2.68 2.68 0 0 1-1.521 1.498c-1.053.411-3.552.316-4.715.316-1.164 0-3.666.092-4.715-.316a2.68 2.68 0 0 1-1.521-1.498c-.418-1.037-.321-3.498-.321-4.644s-.093-3.61.321-4.644a2.68 2.68 0 0 1 1.52-1.498c1.054-.411 3.552-.316 4.716-.316 1.163 0 3.666-.092 4.715.316a2.68 2.68 0 0 1 1.52 1.498c.418 1.037.322 3.498.322 4.644s.096 3.61-.321 4.644z"/>
    </defs>
    <g fill="none" fill-rule="evenodd">
        <mask id="b" fill="#fff">
            <use xlink:href="#a"/>
        </mask>
        <use fill="#000" fill-rule="nonzero" xlink:href="#a"/>
        <g fill="#FFF" mask="url(#b)">
            <path d="M0 0h24v24H0z"/>
        </g>
    </g>
</svg>
