<svg xmlns="http://www.w3.org/2000/svg" width="446" height="398" viewBox="0 0 446 398">
    <g fill="none" fill-rule="evenodd">
        <path fill="#00B5E2" d="M434.196 267.972c59.257-191.65-131.831-88.36-196.106-143.285-64.274-54.925-131.203-232.952-216.749-27.321-85.545 205.63 112.321 139.035 133.184 222.82s220.415 139.436 279.671-52.214z" style="mix-blend-mode:multiply"/>
        <path fill="#F93822" fill-opacity=".75" d="M127.164 253.265c64.609 76.992 138.781 116.03 183.722 130.233 80.02 25.287 87.714-166.876 91.5-192.5 14-94.768-21-168-99.5-130-50.464 24.428-121 26-152.5 34.5s-87.832 80.775-23.222 157.767z" style="mix-blend-mode:multiply"/>
        <path stroke="#EBEBEC" stroke-linecap="square" d="M331.38 60.852c-31.283 56.617-10.296 129.046-36.973 142.638-26.677 13.593-158.297-57.292-136.842-108.9 21.455-51.61 44.288-107.458 78.306-82.345 34.018 25.112 126.793-8.01 95.51 48.607z"/>
    </g>
</svg>
