<?xml version="1.0" encoding="UTF-8"?>
<svg width="24px" height="24px" viewBox="0 0 24 24" version="1.1" xmlns="http://www.w3.org/2000/svg" xmlns:xlink="http://www.w3.org/1999/xlink">
    <!-- Generator: Sketch 54.1 (76490) - https://sketchapp.com -->
    <title> Icon/plus</title>
    <desc>Created with Sketch.</desc>
    <g id="Icon/plus" stroke="none" stroke-width="1" fill="none" fill-rule="evenodd">
        <path d="M12,10.3814871 L16.0462822,6.33520499 C16.4932221,5.888265 17.217855,5.888265 17.664795,6.33520499 C18.111735,6.78214497 18.111735,7.50677786 17.664795,7.95371785 L13.6185129,12 L17.664795,16.0462822 C18.111735,16.4932221 18.111735,17.217855 17.664795,17.664795 C17.217855,18.111735 16.4932221,18.111735 16.0462822,17.664795 L12,13.6185129 L7.95371785,17.664795 C7.50677786,18.111735 6.78214497,18.111735 6.33520499,17.664795 C5.888265,17.217855 5.888265,16.4932221 6.33520499,16.0462822 L10.3814871,12 L6.33520499,7.95371785 C5.888265,7.50677786 5.888265,6.78214497 6.33520499,6.33520499 C6.78214497,5.888265 7.50677786,5.888265 7.95371785,6.33520499 L12,10.3814871 Z" id="Combined-Shape" fill="#333333" transform="translate(12.000000, 12.000000) rotate(-315.000000) translate(-12.000000, -12.000000) "></path>
    </g>
</svg>