<svg xmlns="http://www.w3.org/2000/svg" xmlns:xlink="http://www.w3.org/1999/xlink" width="24" height="24" viewBox="0 0 24 24">
    <defs>
        <path id="a" d="M16.5 5.69a7.751 7.751 0 0 1-4.484 14.06c-4.266.01-7.76-3.469-7.766-7.738a7.75 7.75 0 0 1 3.244-6.318.752.752 0 0 1 1.094.24l.493.878a.75.75 0 0 1-.206.97 5.224 5.224 0 0 0-2.125 4.215A5.246 5.246 0 0 0 12 17.25c2.863 0 5.269-2.319 5.25-5.284a5.252 5.252 0 0 0-2.128-4.188.746.746 0 0 1-.203-.965l.493-.879a.749.749 0 0 1 1.088-.243zm-3.25 6.56v-7.5A.748.748 0 0 0 12.5 4h-1a.748.748 0 0 0-.75.75v7.5c0 .416.334.75.75.75h1c.416 0 .75-.334.75-.75z"/>
    </defs>
    <use fill="#333" fill-rule="evenodd" xlink:href="#a"/>
</svg>
