<?xml version="1.0" encoding="iso-8859-1"?>
<!-- Generator: Adobe Illustrator 19.0.0, SVG Export Plug-In . SVG Version: 6.00 Build 0)  -->
<svg version="1.1" id="Layer_1" xmlns="http://www.w3.org/2000/svg" xmlns:xlink="http://www.w3.org/1999/xlink" x="0px" y="0px"
	 viewBox="0 0 512 512" style="enable-background:new 0 0 512 512;" xml:space="preserve">
<g>
	<g>
		<path d="M457.143,221.744v-8.41C457.143,102.423,366.91,12.19,256,12.19S54.857,102.423,54.857,213.333v8.41
			C23.346,229.883,0,258.553,0,292.571c0,38.004,29.138,69.319,66.244,72.808C93.824,443.597,168.465,499.81,256,499.81
			s162.176-56.213,189.756-134.43C482.862,361.89,512,330.575,512,292.571C512,258.553,488.654,229.883,457.143,221.744z
			 M36.571,292.571c0-13.507,7.365-25.318,18.286-31.651v37.747c0,8.984,0.601,17.831,1.749,26.507
			C44.731,319.126,36.571,306.787,36.571,292.571z M420.571,298.667c0,90.745-73.827,164.571-164.571,164.571
			S91.429,389.411,91.429,298.667v-85.333c0-90.745,73.827-164.571,164.571-164.571s164.571,73.827,164.571,164.571V298.667z
			 M455.394,325.174c1.148-8.676,1.749-17.523,1.749-26.507V260.92c10.92,6.333,18.286,18.144,18.286,31.651
			C475.429,306.787,467.27,319.126,455.394,325.174z"/>
	</g>
</g>
<g>
	<g>
		<polygon points="134.095,219.429 134.095,256 176.762,256 176.762,274.286 213.333,274.286 213.333,219.429 		"/>
	</g>
</g>
<g>
	<g>
		<polygon points="298.667,219.429 298.667,274.286 335.238,274.286 335.238,256 377.905,256 377.905,219.429 		"/>
	</g>
</g>
<g>
	<g>
		<path d="M274.286,335.238c0,10.083-8.203,18.286-18.286,18.286c-10.083,0-18.286-8.203-18.286-18.286h-36.571
			c0,30.248,24.609,54.857,54.857,54.857s54.857-24.609,54.857-54.857H274.286z"/>
	</g>
</g>
<g>
</g>
<g>
</g>
<g>
</g>
<g>
</g>
<g>
</g>
<g>
</g>
<g>
</g>
<g>
</g>
<g>
</g>
<g>
</g>
<g>
</g>
<g>
</g>
<g>
</g>
<g>
</g>
<g>
</g>
</svg>
