<svg xmlns="http://www.w3.org/2000/svg" width="24" height="24" viewBox="0 0 24 24">
    <path fill="#333" fill-rule="evenodd" d="M17.228 13.095l-.659-.189a5.625 5.625 0 1 0-9.139 0l-.658.189C4.665 13.696 4 15.612 4 16.769v.802C4 18.911 5.09 20 6.429 20H17.57C18.911 20 20 18.91 20 17.571v-.802c0-1.133-.648-3.068-2.772-3.674zM12 5.5a4.125 4.125 0 1 1 0 8.25 4.125 4.125 0 0 1 0-8.25zm6.5 12.071a.929.929 0 0 1-.929.929H6.43a.929.929 0 0 1-.929-.929v-.802c0-1.037.687-1.947 1.684-2.232l1.44-.412A5.61 5.61 0 0 0 12 15.25a5.61 5.61 0 0 0 3.376-1.125l1.44.412a2.321 2.321 0 0 1 1.684 2.232v.802z"/>
</svg>
