<svg xmlns="http://www.w3.org/2000/svg" width="1082" height="467" viewBox="0 0 1082 467">
    <g fill="none" fill-rule="evenodd">
        <path stroke="#EBEBEC" stroke-linecap="square" d="M214.897 57.94C282.55 57.94 334 48.066 334 159.895c0 111.83-225.096 121.942-263.27 90.178-38.175-31.765-66.955-112.645-56.6-135.082C24.483 92.554 147.241 57.94 214.896 57.94z"/>
        <path stroke="#EBEBEC" stroke-linecap="square" d="M180.323 142.787c13.85 51.692 31.928 88.98-53.516 111.874C41.363 277.556-12.447 107.641 4.008 71.971 20.463 36.3 76.368-2.248 95.63 1.07c19.263 3.318 70.842 90.025 84.693 141.717z"/>
        <path fill="#FFC450" d="M56.407 466.745H1082c-.021-76.425-.709-73.967-.453-168.863-312.693-2.26-755.257-126.587-1026.399-148.166 1.585 104.687.991 249.044 1.259 317.03z"/>
    </g>
</svg>
